<svg width="222" height="58" viewBox="0 0 222 58" fill="none" xmlns="http://www.w3.org/2000/svg">
<path d="M24.9855 56.879C24.1055 56.879 23.2399 56.6412 22.4754 56.1804L3.23129 44.7363C1.68772 43.8148 0.721191 42.1056 0.721191 40.2626V17.3594C0.721191 15.5164 1.68772 13.8072 3.23129 12.8857L22.4898 1.42669C23.2544 0.980813 24.1199 0.728149 24.9999 0.728149C25.8799 0.728149 26.7454 0.965951 27.51 1.42669L46.7397 12.8857C48.2832 13.8072 49.2498 15.5164 49.2498 17.3594V40.2626C49.2498 42.1056 48.2832 43.8148 46.7397 44.7363L27.4811 56.1953C26.731 56.6412 25.8655 56.879 24.9855 56.879Z" fill="url(#paint0_linear_6_677)"/>
<path d="M24.9856 1.48626C25.7357 1.48626 26.4859 1.69433 27.135 2.08076L46.3791 13.525C47.7063 14.3127 48.5286 15.7841 48.5286 17.3446V40.2479C48.5286 41.8233 47.7063 43.2947 46.3791 44.0676L27.1206 55.5266C26.4714 55.913 25.7213 56.1211 24.9711 56.1211C24.221 56.1211 23.4709 55.913 22.8217 55.5266L3.59204 44.0973C2.26486 43.3096 1.44259 41.8382 1.44259 40.2627V17.3595C1.44259 15.7841 2.26486 14.3127 3.59204 13.5398L22.8361 2.08076C23.4997 1.69433 24.2354 1.48626 24.9856 1.48626ZM24.9856 0C23.9902 0 23.0092 0.267526 22.1148 0.787717L2.87074 12.2468C1.09636 13.302 0 15.249 0 17.3595V40.2627C0 42.3732 1.09636 44.3202 2.87074 45.3755L22.1293 56.8345C23.0092 57.3547 24.0046 57.6222 25 57.6222C25.9954 57.6222 26.9763 57.3547 27.8707 56.8345L47.1293 45.3755C48.9036 44.3202 50 42.3732 50 40.2627V17.3595C50 15.249 48.9036 13.302 47.1293 12.2468L27.8563 0.787717C26.9619 0.267526 25.981 0 24.9856 0Z" fill="white"/>
<path d="M17.344 30.9844L20.1843 23.6933L22.9077 30.2924L24.2695 33.4348L27.2024 39.9291H31.3923L21.7555 17.9323H18.6131L9.39539 39.9291H13.5853L16.0992 33.9585L17.344 30.9844Z" fill="white"/>
<path d="M37.4676 17.9323H33.4872V39.9291H37.4676V17.9323Z" fill="white"/>
<path d="M65.75 19.3026C65.7501 21.4269 66.2786 23.2788 67.3576 24.8318C68.4337 26.3807 71.0325 28.537 75.1208 31.2785L75.1223 31.2795C77.7623 33.0212 79.3922 34.3374 80.0595 35.2338L80.0609 35.2357C80.7285 36.1148 81.0811 37.1943 81.0615 38.2995L81.0614 38.2995V38.304C81.0614 39.7253 80.57 40.8314 79.5962 41.6504C78.6178 42.4733 77.2669 42.8999 75.514 42.9018H75.5137C73.8822 42.9058 72.2794 42.4703 70.8727 41.6406L70.8712 41.6398C69.4138 40.7937 67.8705 39.4083 66.2429 37.4695L65.8015 36.9436V37.6302V44.7401V44.8525L65.8856 44.9271C67.2391 46.1274 68.7987 47.0709 70.4885 47.7117L70.4885 47.7118L70.4942 47.7138C72.2155 48.319 74.0297 48.6149 75.8534 48.588C79.0304 48.5876 81.6549 47.6311 83.7055 45.7049C85.7564 43.7784 86.7824 41.3376 86.7843 38.4016V38.4015C86.7843 35.8322 86.2425 33.6601 85.1435 31.8989C84.0442 30.1371 81.7364 28.1322 78.2646 25.8813L78.2618 25.8795L77.4903 25.3939C77.4898 25.3936 77.4894 25.3933 77.4889 25.393C75.3665 24.0169 73.7881 22.7606 72.7433 21.6251C71.6935 20.4841 71.212 19.4974 71.2129 18.6575H71.2129L71.2128 18.6521C71.2009 18.0712 71.3256 17.4956 71.5767 16.9721C71.8278 16.4486 72.1982 15.9919 72.658 15.6389L72.658 15.639L72.6637 15.6344C73.6363 14.8414 74.899 14.436 76.4733 14.4378C77.8297 14.4476 79.1687 14.7454 80.4023 15.3114C81.9695 16.0645 83.428 17.0267 84.7384 18.1718L85.1529 18.5341V17.9836V11.8685V11.7328L85.0391 11.6589C83.7463 10.8191 82.3487 10.1541 80.8825 9.6811L80.8813 9.68071C79.5222 9.24998 78.1052 9.0314 76.6799 9.0326M65.75 19.3026C65.7442 16.3127 66.7633 13.8435 68.8115 11.9158C70.859 9.98897 73.4891 9.03262 76.6799 9.0326M65.75 19.3026C65.75 19.3025 65.75 19.3024 65.75 19.3023H66L65.75 19.3028C65.75 19.3027 65.75 19.3026 65.75 19.3026ZM76.6799 9.0326C76.6799 9.0326 76.68 9.0326 76.68 9.0326V9.28204L76.6798 9.0326C76.6798 9.0326 76.6799 9.0326 76.6799 9.0326ZM205.491 47.9286H205.741V47.6786V29.1769L220.199 10.1506L220.504 9.74931H220H213.771H213.647L213.572 9.84855L202.965 23.8787L192.61 9.85083L192.535 9.74931H192.409H186.291H185.795L186.091 10.1483L200.007 28.9086V47.6786V47.9286H200.257H205.491ZM168.805 48.1981L168.97 48.1988L169.036 48.0465L185.278 10.0977L185.428 9.74931H185.049H179.72H179.555L179.49 9.90095L168.222 36.2299L157.168 9.89681L157.103 9.74357H156.937H151.537H151.161L151.307 10.0903L167.238 48.0392L167.302 48.1917L167.468 48.1924L168.805 48.1981ZM133.693 48.1981L133.859 48.1988L133.924 48.0465L150.173 10.0977L150.322 9.74931H149.943H144.62H144.455L144.39 9.90087L133.111 36.23L122.065 9.89687L122.001 9.74357H121.834H116.426H116.05L116.195 10.0903L132.127 48.0392L132.191 48.1917L132.356 48.1924L133.693 48.1981ZM100.496 31.8296L100.497 31.8279L105.829 18.8103L111.31 31.8301L111.311 31.8332L113.427 36.6777L113.428 36.681L118.084 47.7754L118.148 47.9286H118.314H123.669H124.045L123.899 47.5815L115.958 28.7419L108.016 9.9022L107.952 9.74931H107.786H104.006H103.839L103.775 9.90329L95.9378 28.7429L88.1006 47.5826L87.9567 47.9286H88.3314H93.6372H93.8042L93.8681 47.7743L98.4678 36.6775L98.4681 36.6767L100.496 31.8296Z" fill="#F2F2F2" stroke="#F2F2F2" stroke-width="0.5"/>
<defs>
<linearGradient id="paint0_linear_6_677" x1="24.9855" y1="0.728149" x2="24.9855" y2="56.879" gradientUnits="userSpaceOnUse">
<stop offset="0.253125" stop-color="#7EAB5E"/>
<stop offset="1" stop-color="#536296"/>
</linearGradient>
</defs>
</svg>
