<svg width="247" height="64" viewBox="0 0 247 64" fill="none" xmlns="http://www.w3.org/2000/svg">
<path fill-rule="evenodd" clip-rule="evenodd" d="M36.2634 22.7365H16.7371V42.2628H36.2634V36.74H30.74V28.26H36.2634V22.7365ZM30.74 28.26H22.26V36.74H30.74V28.26Z" fill="#F2F2F2"/>
<path fill-rule="evenodd" clip-rule="evenodd" d="M10.7541 48.4572H42.2008V42.2628H53V59H0V6H53V22.7365H42.2008V16.7384H10.7541V48.4572Z" fill="#F2F2F2"/>
<path d="M89.7496 23.0508C89.574 21.4071 88.8337 20.1272 87.5288 19.2113C86.2364 18.2953 84.555 17.8374 82.4847 17.8374C81.0292 17.8374 79.7808 18.0569 78.7393 18.4961C77.6979 18.9352 76.9012 19.5312 76.3491 20.2841C75.797 21.0369 75.5147 21.8964 75.5021 22.8626C75.5021 23.6656 75.6841 24.362 76.0479 24.9517C76.4244 25.5414 76.9325 26.0433 77.5724 26.4574C78.2124 26.8589 78.9213 27.1977 79.6992 27.4737C80.4772 27.7498 81.2614 27.9819 82.0518 28.1701L85.6655 29.0735C87.121 29.4123 88.52 29.8703 89.8626 30.4474C91.2177 31.0246 92.4285 31.7524 93.495 32.6307C94.5741 33.509 95.4273 34.5692 96.0547 35.8114C96.6821 37.0536 96.9957 38.5091 96.9957 40.1779C96.9957 42.4364 96.4186 44.4252 95.2642 46.1442C94.1099 47.8506 92.4411 49.1869 90.2578 50.1531C88.0871 51.1067 85.4585 51.5835 82.3718 51.5835C79.373 51.5835 76.7694 51.1192 74.5611 50.1907C72.3653 49.2622 70.6463 47.9071 69.4041 46.1254C68.1745 44.3436 67.5095 42.1729 67.4091 39.6133H74.2788C74.3791 40.9558 74.7932 42.0726 75.521 42.9634C76.2487 43.8543 77.196 44.5193 78.3629 44.9585C79.5424 45.3976 80.8598 45.6172 82.3153 45.6172C83.8336 45.6172 85.1636 45.3913 86.3054 44.9396C87.4598 44.4754 88.3632 43.8355 89.0156 43.0199C89.6681 42.1918 90.0006 41.2256 90.0131 40.1214C90.0006 39.1177 89.7057 38.2895 89.1286 37.6371C88.5514 36.9721 87.7421 36.42 86.7006 35.9808C85.6718 35.5291 84.4672 35.1276 83.087 34.7763L78.7017 33.647C75.5272 32.8314 73.0178 31.5955 71.1733 29.9393C69.3414 28.2705 68.4254 26.0559 68.4254 23.2955C68.4254 21.0244 69.0402 19.0356 70.2699 17.3292C71.5121 15.6228 73.1997 14.299 75.3327 13.358C77.4658 12.4044 79.8812 11.9276 82.5788 11.9276C85.3142 11.9276 87.7107 12.4044 89.7685 13.358C91.8388 14.299 93.4637 15.6102 94.6431 17.2915C95.8226 18.9603 96.4311 20.8801 96.4688 23.0508H89.7496ZM107.55 51H100.097L113.666 12.4545H122.286L135.875 51H128.422L118.127 20.3594H117.826L107.55 51ZM107.794 35.8867H128.121V41.4954H107.794V35.8867ZM141.71 12.4545L151.741 42.794H152.137L162.149 12.4545H169.828L156.24 51H147.62L134.05 12.4545H141.71ZM180.062 12.4545L190.094 42.794H190.489L200.502 12.4545H208.181L194.592 51H185.972L172.402 12.4545H180.062ZM210.623 12.4545H218.509L227.938 29.5064H228.315L237.744 12.4545H245.63L231.608 36.6207V51H224.645V36.6207L210.623 12.4545Z" fill="#F2F2F2"/>
</svg>
