<svg width="172" height="170" viewBox="0 0 172 170" fill="none" xmlns="http://www.w3.org/2000/svg">
<path fill-rule="evenodd" clip-rule="evenodd" d="M104.421 31.5782H67.5793V68.4203H104.421V58H94H78V42H94H104.421V31.5782Z" fill="#A5B862"/>
<path fill-rule="evenodd" clip-rule="evenodd" d="M56.2908 80.1079H115.624V68.4203H136V100H36V0H136V31.5782H115.624V20.261H56.2908V80.1079Z" fill="#A5B862"/>
<path d="M155.767 168.54V147.948L171.969 126.794H165.013L152.944 142.634L141.158 126.794H134.327L149.922 147.653V168.54H155.767ZM114.801 168.839L132.939 126.794H126.989L114.147 156.565L101.548 126.788H95.5176L113.308 168.832L114.801 168.839ZM75.5929 168.839L93.7374 126.794H87.7934L74.9388 156.565L62.3491 126.788H56.3094L74.0997 168.832L75.5929 168.839ZM38.2639 150.874L44.4726 135.834L50.8536 150.874L53.2178 156.245L58.4184 168.54H64.3974L46.6613 126.794H42.4403L24.9371 168.54H30.8619L35.9986 156.245L38.2639 150.874ZM5.11123 168.318C7.00292 168.978 8.99668 169.3 11.0009 169.271C14.4892 169.271 17.349 168.231 19.5802 166.152C21.8114 164.072 22.9281 161.442 22.9303 158.262C22.9303 155.454 22.3336 153.101 21.1404 151.204C19.9471 149.307 17.4149 147.113 13.5438 144.623L12.6791 144.083C7.91888 141.021 5.53982 138.455 5.54195 136.386C5.52773 135.699 5.67631 135.019 5.97564 134.4C6.27497 133.78 6.71663 133.24 7.26483 132.823C8.41128 131.895 9.8885 131.432 11.6965 131.435C13.2518 131.446 14.7871 131.785 16.2015 132.429C17.9751 133.274 19.6257 134.354 21.1085 135.64V128.865C19.6854 127.948 18.1471 127.222 16.5333 126.705C15.0429 126.237 13.4891 125.999 11.9262 126C8.42298 126 5.5579 127.04 3.33093 129.119C1.10395 131.199 -0.00635368 133.859 2.73472e-05 137.101C2.73472e-05 139.407 0.577511 141.402 1.74524 143.069C2.91297 144.737 5.77167 147.1 10.3405 150.14C13.2843 152.067 15.1454 153.549 15.9239 154.587C16.7073 155.61 17.121 156.867 17.098 158.154C17.098 159.801 16.5194 161.108 15.3624 162.073C14.2053 163.039 12.626 163.523 10.6244 163.525C8.75237 163.529 6.9134 163.033 5.29947 162.089C3.63402 161.13 1.88668 159.569 0.0574543 157.407V165.284C1.54357 166.592 3.25597 167.62 5.11123 168.318Z" fill="#3A6771"/>
</svg>
